# xmcd
#
# Track frame offsets: 
#        150
#        16015
#        30665
#        47440
#        69200
#        86882
#        104050
#        121995
#        138545
#        154980
#        174095
#        189700
#        207685
#        223995
#        239880
#        256292
#        274847
#        299765
#
# Disc length: 4233 seconds
#
# Revision: 0
# Processed by: cddbd v1.5.2PL0 Copyright (c) Steve Scherf et al.
# Submitted via: ExactAudioCopyFreeDBPlugin 1.0
#
DISCID=1d108712
DTITLE=Various Artist - VH1 Love Zone 
DYEAR=1998
DGENRE=Soul
TTITLE0=Imagination - Body Talk
TTITLE1=Champaign - How About Us
TTITLE2=Phyllis Nelson - Move Closer
TTITLE3=Heatwave - Always and Forever
TTITLE4=Atlantic Starr - Always
TTITLE5=Pointer Sisters - Slow Hand
TTITLE6=Five Star - Rain or Shine
TTITLE7=David Grant and Jaki Graham - Could it be Im falling in Love
TTITLE8=Lou Rawls - Lady Love
TTITLE9=Gene Chandler - Does she have a Freind
TTITLE10=Al Wilson - Show and Tell
TTITLE11=Fat Larry's Band - Zoom
TTITLE12=Patti Austin and James Ingram - Baby, Come to Me
TTITLE13=Roberta Flack and Peabo Bryson - Tonight I Celerbrate My Love 
TTITLE14=Teddy Pendergrass - Turn Off the Lights
TTITLE15=Richard Marx - Right here Waiting
TTITLE16=Spandau Ballet - True
TTITLE17=The Bangles - Eternal Flame
EXTD=
EXTT0=
EXTT1=
EXTT2=
EXTT3=
EXTT4=
EXTT5=
EXTT6=
EXTT7=
EXTT8=
EXTT9=
EXTT10=
EXTT11=
EXTT12=
EXTT13=
EXTT14=
EXTT15=
EXTT16=
EXTT17=
PLAYORDER=
